<svg xmlns="http://www.w3.org/2000/svg" version="1.1" xmlns:xlink="http://www.w3.org/1999/xlink"
    width="512" height="512" x="0" y="0" viewBox="0 0 68 68"
    style="enable-background:new 0 0 512 512" xml:space="preserve"><g><path d="M58.5 21.3C58.1 13 49.9 7.4 42.2 9.6c-2.1-4.5-6.7-7.5-11.7-7.5-6.3 0-11.8 4.7-12.7 10.9-4.5.6-8.1 4.1-8.8 8.6-4.3 1.4-7.2 5.3-7.2 9.9 0 5.7 4.6 10.4 10.4 10.4h5.1c.6 0 1-.4 1-1s-.4-1-1-1h-5.1c-4.6 0-8.4-3.8-8.4-8.4 0-3.8 2.6-7.2 6.3-8.1.4-.1.7-.5.8-.9.4-4.1 3.8-7.3 7.9-7.5.5 0 .9-.4.9-.9.5-5.5 5.2-9.9 10.8-9.9 4.5 0 8.6 2.9 10.2 7.1.2.5.8.8 1.3.6 7-2.6 14.6 2.7 14.6 10.2v.2c0 .5.4.9.8 1 4 .7 6.9 4.1 6.9 8.2 0 4.6-3.8 8.4-8.4 8.4h-5.1c-.6 0-1 .4-1 1s.4 1 1 1h5.1c5.7 0 10.4-4.6 10.4-10.4-.1-4.9-3.3-9-7.8-10.2z" fill="#ffffff" opacity="1" data-original="#ffffff"></path><path d="M25.6 12.2c.7-2 2.6-3.3 4.7-3.3 1.6 0 3 .7 4 2 .3.4 1 .5 1.4.2s.5-1 .2-1.4c-1.3-1.8-3.4-2.8-5.6-2.8-2.9 0-5.6 1.9-6.6 4.6-.2.5.1 1.1.6 1.3s1.1-.1 1.3-.6zM8.5 31c0-.6-.4-1-1-1s-1 .4-1 1c0 3.5 2.8 6.3 6.3 6.3.6 0 1-.4 1-1s-.4-1-1-1c-2.4 0-4.3-2-4.3-4.3z" fill="#ffffff" opacity="1" data-original="#ffffff"></path><path d="M20.3 22.5v22.4h-8.4c-2.2 0-4 1.8-4 4v4.2c-1.4.4-2.5 1.8-2.5 3.3 0 1.9 1.6 3.5 3.5 3.5s3.5-1.6 3.5-3.5c0-1.6-1.1-2.9-2.5-3.3v-4.2c0-1.1.9-2 2-2h8.4v1.5c0 3.4 5.9 5.3 12.2 5.5v4.2c-1.7.4-3 2-3 3.8 0 2.2 1.8 4 4 4s4-1.8 4-4c0-1.9-1.3-3.4-3-3.9v-4.2c6.7-.1 13.3-2 13.3-5.6v-1.5h8.4c1.1 0 2 .9 2 2v4.2c-1.4.4-2.5 1.8-2.5 3.3 0 1.9 1.6 3.5 3.5 3.5s3.5-1.6 3.5-3.5c0-1.6-1.1-2.9-2.5-3.3v-4.2c0-2.2-1.8-4-4-4h-8.4V22.3c0-3.7-6.9-5.6-13.7-5.6s-13.8 2.1-13.8 5.8zm-10 33.9c0 .8-.7 1.5-1.5 1.5s-1.5-.7-1.5-1.5.7-1.5 1.5-1.5c.9 0 1.5.7 1.5 1.5zm50.3 0c0 .8-.7 1.5-1.5 1.5s-1.5-.7-1.5-1.5.7-1.5 1.5-1.5c.9 0 1.5.7 1.5 1.5zM45.7 40c0 1.5-4.6 3.6-11.7 3.6-7.2 0-11.7-2.1-11.7-3.6v-6.3c2.5 1.7 7.2 2.5 11.7 2.5 4.6 0 9.2-.9 11.7-2.5zm0-9.2c0 1.5-4.6 3.6-11.7 3.6-7.2 0-11.7-2.1-11.7-3.6v-5.3C24.8 27.2 29.4 28 34 28s9.2-.9 11.7-2.5zM35.5 61.9c0 1.1-.9 2-2 2s-2-.9-2-2 .9-2 2-2 2 .9 2 2zm10.2-13.6c0 1.5-4.6 3.6-11.7 3.6-7.2 0-11.7-2.1-11.7-3.6V43c2.5 1.7 7.2 2.5 11.7 2.5 4.6 0 9.2-.9 11.7-2.5zM34 18.9c7.2 0 11.7 2.1 11.7 3.6s-4.6 3.6-11.7 3.6c-7.2 0-11.7-2.1-11.7-3.6s4.5-3.6 11.7-3.6z" fill="#ffffff" opacity="1" data-original="#ffffff"></path><path d="M27.6 29.5c-.8-.2-1.5-.5-2.1-.8-.5-.2-1.1 0-1.3.5s0 1.1.5 1.3c.7.3 1.5.6 2.4.9.5.1 1.1-.2 1.2-.7.2-.5-.1-1-.7-1.2zM27.6 38.2c-.8-.2-1.5-.5-2.1-.8-.5-.2-1.1 0-1.3.5s0 1.1.5 1.3c.7.3 1.5.6 2.4.9.5.1 1.1-.2 1.2-.7.2-.5-.1-1.1-.7-1.2zM27.6 46.8c-.8-.2-1.5-.5-2.1-.8-.5-.2-1.1 0-1.3.5s0 1.1.5 1.3c.7.3 1.5.6 2.4.9.5.1 1.1-.2 1.2-.7.2-.5-.1-1-.7-1.2z" fill="#ffffff" opacity="1" data-original="#ffffff"></path></g></svg>