<svg xmlns="http://www.w3.org/2000/svg" version="1.1" xmlns:xlink="http://www.w3.org/1999/xlink" width="512" height="512" x="0" y="0" viewBox="0 0 512 512" style="enable-background:new 0 0 512 512" xml:space="preserve"><g><path d="M431.544 215.604c-42.146 0-76.436 34.289-76.436 76.436s34.289 76.437 76.436 76.437 76.465-34.289 76.465-76.437-34.302-76.436-76.465-76.436zm0 140.882c-35.535 0-64.445-28.911-64.445-64.446s28.91-64.446 64.445-64.446 64.475 28.91 64.475 64.446-28.923 64.446-64.475 64.446zm31.628-75.081-42.828-24.728c-3.856-2.259-8.464-2.261-12.293-.018-3.847 2.222-6.143 6.197-6.143 10.634v49.493c0 4.438 2.297 8.413 6.111 10.615 1.934 1.133 4.055 1.698 6.172 1.698s4.212-.561 6.121-1.679l42.859-24.746c3.847-2.221 6.144-6.197 6.144-10.635s-2.297-8.413-6.144-10.634zm-5.863 10.786s-.033.042-.133.099l-42.892 24.765c-.062.036-.102.048-.093.05a.603.603 0 0 1-.144-.069c-.099-.057-.13-.096-.131-.096 0-.003-.019-.047-.019-.154v-49.493c0-.107.018-.151.017-.151a.595.595 0 0 1 .164-.118c.062-.036.103-.048.094-.05.01.002.05.014.144.069l42.859 24.747c.101.057.133.089.132.086a.558.558 0 0 1 .018.165c0 .107-.018.152-.017.152zm-306.75-179.734c12.138 26.192 38.663 44.413 69.378 44.413a75.964 75.964 0 0 0 30.942-6.568c.183-.068.358-.156.535-.242 20.147-9.145 35.644-26.771 41.911-48.304.044-.159.104-.313.135-.474a76.206 76.206 0 0 0 2.914-20.848c0-42.147-34.289-76.436-76.437-76.436s-76.436 34.289-76.436 76.436a75.953 75.953 0 0 0 6.753 31.351c.083.231.191.451.304.672zm12.618-1.533 21.694-21.673 16.71 16.71 36.344 36.344a64.234 64.234 0 0 1-17.99 2.574c-24.512 0-45.867-13.759-56.76-33.957zm86.817 26.493-35.695-35.695 33.188-33.189 33.241 33.264c-5.417 15.369-16.5 28.081-30.734 35.62zM219.937 15.988c35.536 0 64.446 28.91 64.446 64.446 0 2.57-.168 5.101-.462 7.594l-32.19-32.213a5.995 5.995 0 0 0-8.479-.001l-37.43 37.43-16.709-16.709a5.995 5.995 0 0 0-8.477-.002l-22.424 22.402a64.223 64.223 0 0 1-2.72-18.502c0-35.536 28.91-64.446 64.445-64.446zm-10.8 51.364c10.699 0 19.403-8.704 19.403-19.403s-8.704-19.375-19.403-19.375-19.375 8.691-19.375 19.375 8.691 19.403 19.375 19.403zm0-26.787c4.088 0 7.413 3.312 7.413 7.384s-3.325 7.413-7.413 7.413-7.385-3.325-7.385-7.413 3.312-7.384 7.385-7.384zm147.852 121.77 44.012-11.828c9.636 4.225 19.898 6.364 30.543 6.364 42.163 0 76.465-34.289 76.465-76.437S473.707 3.998 431.544 3.998s-76.436 34.289-76.436 76.436c0 10.703 2.166 21.025 6.442 30.714l-11.903 43.825a5.996 5.996 0 0 0 7.342 7.361zm16.329-54.291c-4.127-8.656-6.22-17.945-6.22-27.609 0-35.536 28.91-64.446 64.445-64.446s64.475 28.91 64.475 64.446-28.923 64.446-64.475 64.446c-9.61 0-18.847-2.066-27.453-6.142a5.996 5.996 0 0 0-4.121-.372l-36.016 9.679 9.738-35.852a6 6 0 0 0-.374-4.151zm26.095-53.971a5.995 5.995 0 0 1 5.995-5.995h52.3a5.995 5.995 0 1 1 0 11.99h-52.3a5.994 5.994 0 0 1-5.995-5.995zm0 26.362a5.995 5.995 0 0 1 5.995-5.995h52.3a5.995 5.995 0 1 1 0 11.99h-52.3a5.994 5.994 0 0 1-5.995-5.995zm0 26.362a5.995 5.995 0 0 1 5.995-5.995h52.3a5.995 5.995 0 1 1 0 11.99h-52.3a5.994 5.994 0 0 1-5.995-5.995zM251.712 326.24c18.971-11.89 25.309-36.848 14.037-56.389-11.29-19.538-36.076-26.528-55.839-16.026l-33.854-58.645c-6.821-11.771-21.971-15.833-33.782-9.044-10.662 6.159-15.002 19.147-10.707 30.315-2.28 4.208-4.479 8.337-6.613 12.348-17.242 32.406-32.145 60.407-70.535 91.054l-29.923 17.283c-19.573 11.299-26.32 36.435-15.041 56.032l.005.007 21.345 36.963c7.589 13.146 21.42 20.507 35.628 20.507.384 0 .768-.026 1.152-.037l24.42 42.289c5.592 9.685 15.77 15.106 26.221 15.106a30.023 30.023 0 0 0 15.054-4.042l20.976-12.132a5.995 5.995 0 0 0 2.19-8.187l-33.523-58.068c42.497-15.53 72.999-14.472 108.035-13.241 4.534.159 9.202.321 13.978.453 4.784 5.908 11.936 9.167 19.255 9.167 4.189 0 8.432-1.065 12.31-3.305 5.71-3.281 9.8-8.614 11.517-15.017 1.716-6.401.843-13.062-2.452-18.748l-33.852-58.643zm3.653-50.394c7.978 13.83 3.594 31.472-9.646 40.011l-29.814-51.647c14.042-7.202 31.479-2.175 39.46 11.637zM41.189 424.142l-21.342-36.958c-7.983-13.875-3.209-31.667 10.646-39.665L55.63 333l50.386 87.27-25.131 14.515a28.931 28.931 0 0 1-10.498 3.593 5.926 5.926 0 0 0-.59.08c-11.193 1.313-22.632-3.967-28.607-14.315zm86.091 69.438c-8.699 5.023-19.865 2.024-24.892-6.679l-22.301-38.62a41.191 41.191 0 0 0 6.786-3.108l25.138-14.519 31.056 53.795-15.786 9.131zm-10.443-78.548-51.263-88.789c37.612-31.012 52.651-59.268 69.965-91.813.955-1.795 1.927-3.619 2.908-5.456l99.064 171.586c-2.065-.069-4.116-.14-6.133-.211-36.858-1.297-68.863-2.416-114.542 14.682zm159.597-14.506c-.885 3.3-2.983 6.044-5.921 7.732-6.082 3.514-13.891 1.418-17.405-4.667L143.61 213.934c-3.502-6.096-1.41-13.909 4.65-17.411 6.088-3.499 13.903-1.403 17.417 4.659l36.983 64.067.018.032 72.506 125.605c1.69 2.917 2.134 6.34 1.249 9.639zm27.032-144.225a5.992 5.992 0 0 1-8.189-2.195 5.995 5.995 0 0 1 2.195-8.189l15.421-8.901a5.995 5.995 0 1 1 5.994 10.384zm-45.671-66.742a5.995 5.995 0 0 1 4.246 7.339l-4.593 17.206a5.996 5.996 0 0 1-7.338 4.246 5.995 5.995 0 0 1-4.246-7.339l4.593-17.206a5.998 5.998 0 0 1 7.338-4.246zm72.926 129.523a5.997 5.997 0 0 1-7.347 4.232l-17.178-4.621a5.994 5.994 0 0 1-4.231-7.347 5.993 5.993 0 0 1 7.347-4.232l17.178 4.621a5.994 5.994 0 0 1 4.231 7.347z" fill="#ffffff" opacity="1" data-original="#ffffff"></path></g></svg>