<?xml version="1.0" encoding="UTF-8"?>
<svg xmlns="http://www.w3.org/2000/svg" xmlns:xlink="http://www.w3.org/1999/xlink" viewBox="0 0 54.57 93.47">
  <defs>
    <style>
      .cls-1 {
        isolation: isolate;
      }

      .cls-2 {
        fill: url(#linear-gradient);
        mix-blend-mode: darken;
      }

      .cls-3 {
        fill: #009f6f;
      }
    </style>
    <linearGradient id="linear-gradient" x1="23.01" y1="61.12" x2="54.57" y2="61.12" gradientUnits="userSpaceOnUse">
      <stop offset="0" stop-color="#009f6f"/>
      <stop offset="1" stop-color="#11b14e"/>
    </linearGradient>
  </defs>
  <g class="cls-1">
    <g id="Layer_2" data-name="Layer 2">
      <g id="Layer_1-2" data-name="Layer 1">
        <path class="cls-3" d="M27.07,3.44c3.02,0,5.53,.96,7.53,2.88,2,1.92,3,4.31,3,7.16s-1,5.25-3,7.16c-2,1.92-4.51,2.88-7.53,2.88s-5.53-.96-7.53-2.88c-2-1.92-3-4.31-3-7.16s1-5.25,3-7.16c2-1.92,4.51-2.88,7.53-2.88m21.95,27.6l-22.06,53.38L5.13,31.04H49.02M27.07,0c-3.92,0-7.26,1.29-9.91,3.84-2.69,2.58-4.06,5.83-4.06,9.65s1.37,7.07,4.06,9.65c2.65,2.54,5.98,3.83,9.91,3.83s7.26-1.29,9.91-3.84c2.69-2.58,4.06-5.83,4.06-9.65s-1.37-7.06-4.06-9.65c-2.66-2.55-6-3.84-9.92-3.84h0Zm27.09,27.6H0l1.94,4.74,21.83,53.38,3.17,7.75,3.2-7.74,22.06-53.38,1.97-4.76h0Z"/>
        <polygon class="cls-2" points="23.01 41.92 38.71 80.31 54.57 41.92 23.01 41.92"/>
      </g>
    </g>
  </g>
</svg>