<?xml version="1.0" encoding="UTF-8"?>
<svg xmlns="http://www.w3.org/2000/svg" xmlns:xlink="http://www.w3.org/1999/xlink" viewBox="0 0 62.42 62.78">
  <defs>
    <style>
      .cls-1 {
        isolation: isolate;
      }

      .cls-2 {
        fill: url(#linear-gradient);
        mix-blend-mode: darken;
      }

      .cls-3 {
        fill: #009f6f;
      }
    </style>
    <linearGradient id="linear-gradient" x1="5.26" y1="30.67" x2="30.67" y2="5.26" gradientUnits="userSpaceOnUse">
      <stop offset="0" stop-color="#009f6f"/>
      <stop offset="1" stop-color="#11b14e"/>
    </linearGradient>
  </defs>
  <g class="cls-1">
    <g id="Layer_2" data-name="Layer 2">
      <g id="Layer_1-2" data-name="Layer 1">
        <path class="cls-3" d="M21.47,21.55l22.06,9.25-3.98,3.98,16.78,13.84-5.45,2.6-2.49,5.35-13.6-17.01-4.12,4.12-9.19-22.13m-6.12-6.14l3.07,7.4,9.19,22.13,1.89,4.55,3.49-3.49,1.52-1.52,11.3,14.14,3.32,4.15,2.24-4.81,1.99-4.27,4.39-2.09,4.67-2.23-3.99-3.29-13.98-11.53,1.41-1.41,3.47-3.47-4.53-1.9-22.06-9.25-7.39-3.1h0Z"/>
        <circle class="cls-2" cx="17.97" cy="17.97" r="17.97"/>
      </g>
    </g>
  </g>
</svg>