<?xml version="1.0" encoding="UTF-8"?>
<svg xmlns="http://www.w3.org/2000/svg" xmlns:xlink="http://www.w3.org/1999/xlink" viewBox="0 0 38.64 75.98">
  <defs>
    <style>
      .cls-1 {
        isolation: isolate;
      }

      .cls-2 {
        fill: url(#linear-gradient);
      }

      .cls-2, .cls-3 {
        mix-blend-mode: darken;
      }

      .cls-3 {
        fill: url(#linear-gradient-2);
      }

      .cls-4 {
        fill: #009f6f;
      }
    </style>
    <linearGradient id="linear-gradient" x1="20.11" y1="31.59" x2="35.46" y2="16.24" gradientUnits="userSpaceOnUse">
      <stop offset="0" stop-color="#009f6f"/>
      <stop offset="1" stop-color="#11b14e"/>
    </linearGradient>
    <linearGradient id="linear-gradient-2" x1="16.26" y1="11.59" x2="16.26" y2="0" xlink:href="#linear-gradient"/>
  </defs>
  <g class="cls-1">
    <g id="Layer_2" data-name="Layer 2">
      <g id="Layer_1-2" data-name="Layer 1">
        <path class="cls-4" d="M16.26,16.79c9.23,0,15.51,9.38,11.98,17.91l-9.45,22.86c-.83,2.01-.16,4.22,1.46,5.67,.04,.04,.09,.08,.13,.12,1.08,1.04,1.63,2.34,1.63,3.89s-.54,2.85-1.63,3.89c-1.09,1.04-2.45,1.56-4.09,1.56s-3-.52-4.08-1.56c-1.09-1.04-1.63-2.33-1.63-3.89s.54-2.84,1.63-3.89c0,0,.02-.02,.03-.03,1.56-1.48,2.25-3.65,1.44-5.64L4.26,34.66c-3.49-8.53,2.78-17.87,12-17.87h0m0-3.3c-5.43,0-10.47,2.69-13.5,7.2C-.26,25.2-.84,30.89,1.21,35.91l9.42,23.03c.3,.73-.14,1.51-.66,2-1.77,1.7-2.68,3.86-2.68,6.3s.91,4.61,2.64,6.27c1.69,1.62,3.89,2.48,6.36,2.48s4.68-.86,6.37-2.48c1.73-1.66,2.64-3.82,2.64-6.26s-.91-4.61-2.64-6.26l-.21-.2c-.5-.45-.93-1.2-.61-1.96l9.45-22.86c2.08-5.03,1.51-10.73-1.51-15.25-3.02-4.52-8.08-7.22-13.51-7.22h0Z"/>
        <circle class="cls-2" cx="27.79" cy="23.91" r="10.85"/>
        <circle class="cls-3" cx="16.26" cy="5.79" r="5.79"/>
      </g>
    </g>
  </g>
</svg>