<svg xmlns="http://www.w3.org/2000/svg" version="1.1" xmlns:xlink="http://www.w3.org/1999/xlink" width="512" height="512" x="0" y="0" viewBox="0 0 512 512" style="enable-background:new 0 0 512 512" xml:space="preserve" class=""><g><path d="M45 180.985H15c-8.291 0-15 6.709-15 15s6.709 15 15 15h30c8.291 0 15-6.709 15-15s-6.709-15-15-15zM52.211 105.985 31 84.775c-5.859-5.859-15.352-5.859-21.211 0-5.859 5.859-5.859 15.352 0 21.211L31 127.196c5.86 5.86 15.351 5.86 21.211 0 5.859-5.859 5.859-15.352 0-21.211zM52.211 264.775c-5.859-5.859-15.352-5.86-21.211 0L9.789 285.986c-5.859 5.859-5.859 15.352 0 21.211 5.86 5.86 15.351 5.86 21.211 0l21.211-21.211c5.859-5.859 5.859-15.352 0-21.211zM497 180.985h-30c-8.291 0-15 6.709-15 15s6.709 15 15 15h30c8.291 0 15-6.709 15-15s-6.709-15-15-15zM502.211 84.774c-5.859-5.859-15.352-5.859-21.211 0l-21.211 21.211c-5.859 5.859-5.859 15.352 0 21.211 5.86 5.86 15.351 5.86 21.211 0l21.211-21.211c5.859-5.859 5.859-15.352 0-21.211zM502.211 285.985 481 264.775c-5.859-5.859-15.352-5.859-21.211 0s-5.859 15.352 0 21.211L481 307.196c5.86 5.86 15.351 5.86 21.211 0 5.859-5.859 5.859-15.352 0-21.211zM369.452 40.239C327.147 5.845 271.645-7.397 217.343 4.028 149.638 18.164 94.501 74.125 80.146 141.801 67.944 199.384 83.002 257.187 121.44 300.4c15.54 17.487 25.02 38.593 28.129 60.586H196v-135c0-5.809 43.984-91.514 46.582-96.709 5.098-10.166 21.738-10.166 26.836 0 2.721 5.442 46.582 91.191 46.582 96.709v135h46.483c3.215-21.888 12.973-43.33 28.956-61.567A179.548 179.548 0 0 0 436 180.985c0-54.448-24.258-106.381-66.548-140.746z" fill="#009F6F" opacity="1" data-original="#000000" class=""></path><path d="M256 254.667c-10.142 0-20.244-1.767-30-4.993v111.312h60V249.674c-9.756 3.226-19.858 4.993-30 4.993zM151 390.986v15c0 24.814 20.186 45 45 45h120c24.814 0 45-20.186 45-45v-15H151zM256 169.53l-24.789 49.578c16.02 6.563 33.558 6.563 49.578 0L256 169.53zM183.763 480.986c6.213 17.422 22.707 31 42.237 31h60c19.53 0 36.024-13.578 42.237-31H183.763z" fill="#009F6F" opacity="1" data-original="#000000" class=""></path></g></svg>