<svg xmlns="http://www.w3.org/2000/svg" version="1.1" xmlns:xlink="http://www.w3.org/1999/xlink" width="512" height="512" x="0" y="0" viewBox="0 0 510 510" style="enable-background:new 0 0 512 512" xml:space="preserve" class=""><g><path d="M377.21 116.11V96.89h109.92c8.29 0 15-6.72 15-15V15c0-8.28-6.71-15-15-15H362.21c-8.28 0-15 6.72-15 15v101.11h-219.1C57.47 116.11 0 173.58 0 244.23v161.69c0 8.28 6.72 15 15 15h183.75V495c0 8.28 6.72 15 15 15h82.5c8.28 0 15-6.72 15-15v-74.08H495c8.28 0 15-6.72 15-15V244.23c0-65.942-51.106-128.12-132.79-128.12zM480 390.92H256.23V244.23c0-39.34-17.82-74.6-45.82-98.12h136.8v78.44c-21.24 6.44-36.73 26.2-36.73 49.52 0 28.53 23.2 51.74 51.73 51.74s51.74-23.21 51.74-51.74c0-23.32-15.5-43.08-36.74-49.52v-78.44c63.637 0 102.79 47.373 102.79 98.12zM281.25 480h-52.5v-59.08h52.5zM30 244.23c0-54.099 44.005-98.12 98.11-98.12 54.11 0 98.12 44.017 98.12 98.12v146.69H30V244.23zm332.21 8.1c11.998 0 21.74 9.785 21.74 21.74 0 11.99-9.75 21.74-21.74 21.74-11.98 0-21.73-9.75-21.73-21.74 0-12.002 9.779-21.74 21.73-21.74zM472.13 66.89h-94.92V30h94.92z" fill="#009F6F" opacity="1" data-original="#000000"></path><path d="M161.05 265.86c8.28 0 15-6.72 15-15 0-8.29-6.72-15-15-15h-85.5c-8.28 0-15 6.71-15 15 0 8.28 6.72 15 15 15z" fill="#009F6F" opacity="1" data-original="#000000"></path></g></svg>