<svg width="904" height="800" viewBox="0 0 904 800" fill="none" xmlns="http://www.w3.org/2000/svg">
<path d="M500.954 617.533C496.67 615.053 493.263 611.637 490.84 607.691C488.482 604.699 486.681 601.188 485.634 597.272L396.822 264.966C396.484 263.7 394.789 263.476 394.135 264.611L153.74 682.064L204.718 770.588C215.199 788.788 234.568 800 255.529 800H648.47C669.432 800 688.801 788.788 699.281 770.588L895.752 429.412C906.233 411.212 906.233 388.788 895.752 370.588L786.08 180.139L540.286 606.966C532.335 620.773 514.725 625.504 500.954 617.533Z" fill="url(#paint0_linear_233_1238)"/>
<path d="M752.832 122.404L526.14 516.062C525.486 517.196 523.791 516.972 523.453 515.707L435.437 186.378C435.218 185.559 434.966 184.758 434.683 183.975C434.639 183.854 434.61 183.727 434.598 183.598C433.724 174.641 428.699 166.225 420.333 161.382C406.562 153.411 388.952 158.142 381.001 171.949L120.493 624.329L8.24725 429.412C-2.23346 411.212 -2.23346 388.788 8.24726 370.588L204.718 29.4117C215.199 11.2117 234.568 0 255.529 0L648.47 1.647e-05C669.432 1.73886e-05 688.801 11.2117 699.281 29.4117L752.832 122.404Z" fill="url(#paint1_linear_233_1238)"/>
<defs>
<linearGradient id="paint0_linear_233_1238" x1="138.287" y1="688.671" x2="745.513" y2="113.567" gradientUnits="userSpaceOnUse">
<stop stop-color="#009F6F"/>
<stop offset="1" stop-color="#11b14e"/>
</linearGradient>
<linearGradient id="paint1_linear_233_1238" x1="138.287" y1="688.671" x2="745.513" y2="113.567" gradientUnits="userSpaceOnUse">
<stop stop-color="#009F6F"/>
<stop offset="1" stop-color="#11b14e"/>
</linearGradient>
</defs>
</svg>
