<svg width="1282" height="440" viewBox="0 0 1282 440" fill="none" xmlns="http://www.w3.org/2000/svg">
<path d="M658.265 302.136H633.92V288.225H637.646C643.774 288.225 649.819 286.237 655.781 282.262C661.909 278.122 666.215 271.994 668.699 263.879L698.262 152.834C699.918 147.037 702.982 142.4 707.453 138.922C712.091 135.444 717.39 133.705 723.353 133.705H765.336L736.767 240.279C731.633 257.834 721.531 272.574 706.46 284.498C691.389 296.257 675.324 302.136 658.265 302.136ZM742.481 69.1152C748.609 69.1152 753.246 71.2682 756.393 75.5742C759.54 79.8803 760.368 85.2628 758.877 91.7218C757.055 98.0151 753.412 103.315 747.946 107.621C742.481 111.927 736.685 114.08 730.557 114.08C724.429 114.08 719.792 111.927 716.645 107.621C713.498 103.315 712.67 98.0151 714.161 91.7218C715.983 85.2628 719.626 79.8803 725.091 75.5742C730.557 71.2682 736.353 69.1152 742.481 69.1152Z" fill="#232323"/>
<path d="M637.579 302.135H602.055V288.223H637.579V302.135Z" fill="#232323"/>
<path d="M606.109 302.136H581.515C564.457 302.136 552.284 297.168 544.997 287.231C537.71 277.294 534.066 267.109 534.066 256.675C534.066 251.541 534.812 246.075 536.302 240.279L595.285 11.9222C596.942 6.4569 599.674 3.72424 603.483 3.72424C607.458 3.72424 611.599 5.62883 615.905 9.43799L649.69 40.2425L591.949 263.631C591.452 265.949 591.204 268.102 591.204 270.09C591.204 274.23 592.363 277.874 594.682 281.02C597.994 285.823 603.045 288.225 609.836 288.225L606.109 302.136Z" fill="#232323"/>
<path d="M433.226 302.137H322.181V288.226H348.762C340.812 279.613 336.838 269.097 336.838 256.676C336.838 251.542 337.5 246.076 338.825 240.28C351.909 191.092 361.597 155.07 367.891 132.215C369.547 126.419 372.611 121.782 377.082 118.304C381.554 114.826 386.771 113.087 392.733 113.087H483.905C500.963 113.087 513.136 118.055 520.423 127.992C527.71 137.764 531.354 147.949 531.354 158.548C531.354 163.682 530.608 169.148 529.118 174.944L510.983 243.012C505.352 259.905 495.084 273.983 480.178 285.244C465.438 296.506 449.788 302.137 433.226 302.137ZM412.359 288.226C419.149 288.226 425.525 285.907 431.487 281.27C437.449 276.467 441.424 270.587 443.412 263.632L473.471 151.592C473.968 149.274 474.216 147.121 474.216 145.133C474.216 140.993 473.14 137.349 470.987 134.203C467.509 129.4 462.375 126.999 455.584 126.999C448.96 126.999 442.666 129.4 436.704 134.203C430.742 138.84 426.684 144.637 424.531 151.592L394.472 263.632C393.975 265.95 393.727 268.103 393.727 270.091C393.727 274.231 394.886 277.875 397.205 281.021C400.683 285.824 405.734 288.226 412.359 288.226Z" fill="#232323"/>
<path d="M325.835 302.134H290.311V288.222H325.835V302.134Z" fill="#232323"/>
<path d="M293.982 302.134H227.405C221.443 302.134 217.385 300.726 215.232 297.911C213.079 295.096 212.003 292.032 212.003 288.719C212.003 286.07 218.627 260.234 231.876 211.211L251.254 139.169C251.75 136.85 251.999 134.532 251.999 132.213C251.999 127.907 251.005 123.849 249.018 120.04C246.037 114.244 241.317 110.352 234.858 108.364C232.705 107.868 230.634 107.619 228.647 107.619C224.507 107.619 220.615 108.696 216.971 110.849C211.506 114.327 207.697 119.461 205.544 126.251C203.059 136.85 192.957 174.859 175.236 240.277C170.102 257.832 159.999 272.572 144.928 284.496C129.857 296.255 113.792 302.134 96.7341 302.134H47.7946C30.7362 302.134 18.5634 297.166 11.2763 287.229C3.98925 277.126 0.345703 266.858 0.345703 256.424C0.345703 251.29 1.00817 245.908 2.33309 240.277L22.207 139.272C23.8631 133.972 26.5958 131.322 30.405 131.322C34.3797 131.322 38.4373 133.227 42.5777 137.036L76.6117 167.592L58.2284 263.629C57.5659 265.947 57.2347 268.183 57.2347 270.336C57.2347 274.476 58.394 278.037 60.7126 281.018C64.1906 285.821 69.3246 288.223 76.1149 288.223C82.4083 288.057 88.5361 285.904 94.4982 281.764C100.46 277.623 104.684 271.495 107.168 263.38L141.947 132.958C146.916 115.734 155.196 103.562 166.789 96.4401C178.548 89.1531 189.644 85.5095 200.078 85.5095C205.212 85.5095 210.512 86.2548 215.977 87.7453L300.441 112.091C309.881 115.403 314.602 121.448 314.602 130.226C314.602 132.213 314.353 134.366 313.856 136.685L299.199 190.841L279.822 263.629C279.325 265.947 279.077 268.1 279.077 270.088C279.077 274.228 280.236 277.872 282.555 281.018C285.867 285.821 290.918 288.223 297.709 288.223L293.982 302.134Z" fill="#232323"/>
<path d="M27.5851 23.4081L19.2535 15.0821C18.6959 14.5594 17.9569 14.2739 17.1927 14.286C16.4284 14.2981 15.6988 14.6068 15.158 15.1469C14.6171 15.6871 14.3075 16.4163 14.2944 17.1805C14.2813 17.9447 14.5658 18.684 15.0878 19.2424L23.4193 27.5739C23.9717 28.1263 24.721 28.4367 25.5022 28.4367C26.2834 28.4367 27.0327 28.1263 27.5851 27.5739C28.1375 27.0215 28.4478 26.2723 28.4478 25.491C28.4478 24.7098 28.1375 23.9606 27.5851 23.4081Z" fill="#F9B233"/>
<path d="M15.1519 47.4995H3.17001C2.41002 47.5321 1.69198 47.8569 1.16575 48.4062C0.639516 48.9555 0.345703 49.6869 0.345703 50.4476C0.345703 51.2083 0.639516 51.9395 1.16575 52.4888C1.69198 53.0381 2.41002 53.3629 3.17001 53.3955H15.1519C15.5496 53.4126 15.9468 53.349 16.3194 53.2086C16.6919 53.0681 17.0322 52.8537 17.3197 52.5783C17.6072 52.3029 17.8359 51.9721 17.9922 51.6059C18.1485 51.2397 18.2291 50.8457 18.2291 50.4476C18.2291 50.0494 18.1485 49.6554 17.9922 49.2892C17.8359 48.923 17.6072 48.5923 17.3197 48.3169C17.0322 48.0414 16.6919 47.827 16.3194 47.6865C15.9468 47.5461 15.5496 47.4825 15.1519 47.4995Z" fill="#F9B233"/>
<path d="M97.7359 47.4995H85.754C85.3562 47.4825 84.959 47.5461 84.5865 47.6865C84.214 47.827 83.8737 48.0414 83.5862 48.3169C83.2987 48.5923 83.0699 48.923 82.9136 49.2892C82.7573 49.6554 82.6768 50.0494 82.6768 50.4476C82.6768 50.8457 82.7573 51.2397 82.9136 51.6059C83.0699 51.9721 83.2987 52.3029 83.5862 52.5783C83.8737 52.8537 84.214 53.0681 84.5865 53.2086C84.959 53.349 85.3562 53.4126 85.754 53.3955H97.7359C98.5149 53.3857 99.2591 53.0715 99.8095 52.5201C100.36 51.9687 100.673 51.2239 100.681 50.4448C100.682 50.0579 100.606 49.6745 100.459 49.3168C100.311 48.9592 100.094 48.6343 99.8201 48.3606C99.5464 48.087 99.2215 47.87 98.8638 47.7223C98.5061 47.5745 98.1228 47.4988 97.7359 47.4995Z" fill="#F9B233"/>
<path d="M85.8257 15.078C85.553 14.8031 85.2286 14.585 84.8711 14.4361C84.5136 14.2872 84.1303 14.2106 83.743 14.2106C83.3558 14.2106 82.9722 14.2872 82.6147 14.4361C82.2573 14.585 81.9329 14.8031 81.6601 15.078L73.3286 23.404C73.055 23.6776 72.8381 24.0023 72.6901 24.3597C72.5421 24.717 72.4658 25.1001 72.4658 25.4869C72.4658 25.8738 72.5421 26.2567 72.6901 26.6141C72.8381 26.9715 73.055 27.2963 73.3286 27.5698C73.6021 27.8434 73.9268 28.0602 74.2842 28.2083C74.6416 28.3563 75.0246 28.4326 75.4115 28.4326C75.7983 28.4326 76.1814 28.3563 76.5387 28.2083C76.8961 28.0602 77.2208 27.8434 77.4943 27.5698L85.8257 19.2383C86.0991 18.9652 86.316 18.641 86.464 18.2841C86.612 17.9271 86.6882 17.5445 86.6882 17.1581C86.6882 16.7717 86.612 16.3891 86.464 16.0322C86.316 15.6752 86.0991 15.351 85.8257 15.078Z" fill="#F9B233"/>
<path d="M50.4551 0.210943C50.0681 0.210228 49.6848 0.285903 49.3271 0.433666C48.9695 0.581428 48.6445 0.798399 48.3709 1.07204C48.0972 1.34568 47.8803 1.67065 47.7326 2.02832C47.5848 2.38598 47.5091 2.76927 47.5098 3.15625V15.1382C47.5182 15.9172 47.8311 16.6621 48.3815 17.2135C48.9318 17.7649 49.6761 18.0791 50.4551 18.089C50.8425 18.0897 51.2263 18.0138 51.5843 17.8657C51.9424 17.7176 52.2676 17.5002 52.5413 17.226C52.815 16.9517 53.0318 16.6262 53.1792 16.2679C53.3267 15.9096 53.4018 15.5256 53.4004 15.1382V3.15625C53.3919 2.37773 53.0789 1.63349 52.5284 1.08296C51.9778 0.532435 51.2336 0.219405 50.4551 0.210943Z" fill="#F9B233"/>
<path d="M66.9256 29.6865C63.7443 27.1693 60.028 25.4154 56.0626 24.5597C52.0971 23.704 47.9882 23.7692 44.0519 24.7505C39.3995 25.8468 35.1388 28.2028 31.7365 31.56C28.3342 34.9173 25.9218 39.1464 24.7636 43.7838C23.6111 48.3049 23.661 53.0489 24.9085 57.5447C26.1559 62.0406 28.5574 66.132 31.8747 69.4129C34.4066 72.1429 35.7848 75.7464 35.7205 79.4693V80.1093C35.7139 80.4986 35.7856 80.8853 35.9316 81.2463C36.0775 81.6073 36.2947 81.9353 36.57 82.2106C36.8454 82.4859 37.1733 82.703 37.5342 82.849C37.8952 82.9949 38.2818 83.0667 38.6711 83.0601H62.25C62.639 83.0667 63.0255 82.9949 63.3862 82.8489C63.7469 82.7029 64.0743 82.4857 64.3492 82.2102C64.6241 81.9348 64.8409 81.6069 64.9862 81.2459C65.1316 80.885 65.2026 80.4984 65.1953 80.1093V79.4693C65.1548 75.6571 66.6025 71.9793 69.2308 69.2176C74.1656 64.2428 76.9308 57.517 76.9222 50.5097C76.9675 46.5041 76.0893 42.542 74.3557 38.9307C72.622 35.3194 70.0795 32.1562 66.9256 29.6865ZM50.4578 41.6196C48.5333 41.5731 46.6487 42.1721 45.1044 43.3213C43.56 44.4705 42.4448 46.1036 41.9366 47.9604C41.7454 48.7227 41.2608 49.3785 40.5881 49.7849C39.9155 50.1914 39.1094 50.3154 38.3457 50.1301C37.9666 50.0421 37.6094 49.878 37.2957 49.6476C36.9821 49.4173 36.7186 49.1256 36.5212 48.7903C36.3238 48.4549 36.1968 48.0829 36.1478 47.6968C36.0987 47.3108 36.1286 46.9188 36.2358 46.5447C37.0562 43.409 38.9019 40.6376 41.479 38.6718C44.0562 36.706 47.2167 35.6587 50.4578 35.6964C51.2368 35.7063 51.981 36.0205 52.5314 36.5719C53.0818 37.1233 53.3947 37.8681 53.4031 38.6471C53.4053 39.035 53.3307 39.4195 53.1836 39.7785C53.0365 40.1374 52.8198 40.4636 52.546 40.7384C52.2722 41.0132 51.9468 41.2311 51.5884 41.3796C51.23 41.528 50.8457 41.604 50.4578 41.6033V41.6196Z" fill="#F9B233"/>
<path d="M38.6709 88.958V91.9034C38.6752 94.247 39.6081 96.4933 41.2653 98.1504C42.9224 99.8076 45.1687 100.74 47.5123 100.745H53.4029C55.747 100.74 57.9939 99.8077 59.6519 98.1507C61.3099 96.4937 62.244 94.2475 62.2498 91.9034V88.958H38.6709Z" fill="#F9B233"/>
<path d="M746.851 412.715L748.578 410.987H751.084C753.848 410.987 755.835 410.353 757.044 409.086C758.311 407.819 758.945 405.804 758.945 403.039V354.49H765.337V403.039C765.337 408.338 764.185 412.225 761.882 414.701C759.636 417.178 756.036 418.416 751.084 418.416H746.851V412.715Z" fill="#232323"/>
<path d="M737.57 412.715L739.298 410.987H748.541V416.688L746.814 418.416H737.57V412.715Z" fill="#232323"/>
<path d="M728.29 412.715L730.018 410.987H739.261V416.688L737.533 418.416H728.29V412.715Z" fill="#232323"/>
<path d="M719.01 412.715L720.738 410.987H729.981V416.688L728.253 418.416H719.01V412.715Z" fill="#232323"/>
<path d="M709.729 412.715L711.457 410.987H720.701V416.688L718.973 418.416H709.729V412.715Z" fill="#232323"/>
<path d="M682.99 412.715L684.718 410.987H687.742C692.637 410.987 695.084 408.54 695.084 403.645V389.996H701.131V403.645C701.131 408.54 703.579 410.987 708.474 410.987H711.498V416.689L709.77 418.417C701.822 418.417 697.158 415.595 695.775 409.951H695.343C694.71 413.118 693.472 415.335 691.629 416.602C689.786 417.812 686.906 418.417 682.99 418.417V412.715ZM702.945 379.629C701.794 379.629 700.872 379.312 700.181 378.679C699.49 377.988 699.144 376.894 699.144 375.396C699.144 373.899 699.49 372.833 700.181 372.2C700.872 371.509 701.794 371.163 702.945 371.163H703.896C705.048 371.163 705.969 371.509 706.66 372.2C707.351 372.833 707.697 373.899 707.697 375.396C707.697 376.894 707.351 377.988 706.66 378.679C705.969 379.312 705.048 379.629 703.896 379.629H702.945ZM691.802 379.629C690.65 379.629 689.728 379.312 689.037 378.679C688.346 377.988 688.001 376.894 688.001 375.396C688.001 373.899 688.346 372.833 689.037 372.2C689.728 371.509 690.65 371.163 691.802 371.163H692.752C693.904 371.163 694.825 371.509 695.516 372.2C696.207 372.833 696.553 373.899 696.553 375.396C696.553 376.894 696.207 377.988 695.516 378.679C694.825 379.312 693.904 379.629 692.752 379.629H691.802Z" fill="#232323"/>
<path d="M673.71 412.715L675.438 410.987H684.681V416.688L682.953 418.416H673.71V412.715Z" fill="#232323"/>
<path d="M664.43 412.715L666.157 410.987H675.401V416.688L673.673 418.416H664.43V412.715Z" fill="#232323"/>
<path d="M655.149 412.715L656.877 410.987H666.12V416.688L664.393 418.416H655.149V412.715Z" fill="#232323"/>
<path d="M655.108 418.416C652.92 418.416 651.077 418.243 649.579 417.898C648.139 417.495 646.815 416.746 645.605 415.652C642.611 417.495 638.407 418.416 632.993 418.416H595.588V412.715L597.316 410.987H601.808L605.004 405.545V354.49H611.397V386.108L610.36 396.215L610.792 396.388C612.692 393.854 614.593 391.752 616.493 390.081C618.394 388.354 620.323 386.972 622.281 385.935C624.297 384.898 626.313 384.15 628.328 383.689C630.402 383.228 632.532 382.998 634.721 382.998C640.307 382.998 644.655 384.553 647.765 387.663C650.875 390.715 652.43 394.948 652.43 400.361C652.43 404.393 651.768 407.733 650.443 410.382C651.653 410.785 653.207 410.987 655.108 410.987H656.836V416.688L655.108 418.416ZM632.993 410.987C637.312 410.987 640.624 410.267 642.928 408.827C645.231 407.387 646.383 404.853 646.383 401.225C646.383 397.655 645.462 394.977 643.619 393.191C641.833 391.348 639.299 390.427 636.017 390.427H633.425C631.121 390.427 629.019 390.657 627.119 391.118C625.276 391.521 623.491 392.27 621.763 393.364C620.093 394.401 618.423 395.869 616.752 397.77C615.14 399.613 613.412 401.945 611.569 404.767L607.855 410.555L608.114 410.987H632.993Z" fill="#232323"/>
<path d="M586.312 412.715L588.04 410.987H597.284V416.688L595.556 418.416H586.312V412.715Z" fill="#232323"/>
<path d="M577.032 412.715L578.76 410.987H588.003V416.688L586.276 418.416H577.032V412.715Z" fill="#232323"/>
<path d="M542.805 431.72H547.383C553.661 431.72 558.498 430.539 561.896 428.178C565.351 425.875 567.482 422.621 568.289 418.417H558.181C553.574 418.417 550.004 417.207 547.47 414.788C544.936 412.37 543.669 408.972 543.669 404.595C543.669 402.003 544.043 399.556 544.792 397.252C545.598 394.948 546.692 392.961 548.074 391.291C549.456 389.564 551.098 388.21 552.998 387.231C554.956 386.195 557.087 385.676 559.391 385.676C564.171 385.676 567.914 387.807 570.621 392.069C573.385 396.331 574.768 402.32 574.768 410.037V410.987H578.741V416.689L577.014 418.417H573.99C572.723 425.04 569.872 430.136 565.438 433.707C561.061 437.335 555.043 439.149 547.383 439.149H542.805V431.72ZM549.716 403.731C549.716 406.265 550.378 408.108 551.702 409.26C553.085 410.411 555.244 410.987 558.181 410.987H568.721V408.309C568.721 403.645 567.828 399.959 566.043 397.252C564.315 394.488 561.925 393.105 558.872 393.105C555.935 393.105 553.661 394.085 552.048 396.043C550.493 398.001 549.716 400.563 549.716 403.731Z" fill="#232323"/>
<path d="M515.448 412.715L517.176 410.987H518.472C522.273 410.987 525.008 410.526 526.678 409.605C528.406 408.626 529.27 406.783 529.27 404.076C529.27 403.039 529.184 401.715 529.011 400.102C528.896 398.49 528.608 396.359 528.147 393.71L526.938 386.54L532.985 385.589L534.021 392.76C534.424 395.581 534.712 397.885 534.885 399.67C535.058 401.456 535.144 402.924 535.144 404.076C535.144 408.914 533.704 412.513 530.825 414.874C528.003 417.236 523.885 418.416 518.472 418.416H515.448V412.715ZM534.194 435.693C533.042 435.693 532.121 435.348 531.43 434.657C530.739 434.023 530.393 432.958 530.393 431.461C530.393 429.963 530.739 428.869 531.43 428.178C532.121 427.544 533.042 427.228 534.194 427.228H535.144C536.296 427.228 537.218 427.544 537.909 428.178C538.6 428.869 538.945 429.963 538.945 431.461C538.945 432.958 538.6 434.023 537.909 434.657C537.218 435.348 536.296 435.693 535.144 435.693H534.194ZM523.05 435.693C521.898 435.693 520.977 435.348 520.286 434.657C519.595 434.023 519.249 432.958 519.249 431.461C519.249 429.963 519.595 428.869 520.286 428.178C520.977 427.544 521.898 427.228 523.05 427.228H524C525.152 427.228 526.074 427.544 526.765 428.178C527.456 428.869 527.801 429.963 527.801 431.461C527.801 432.958 527.456 434.023 526.765 434.657C526.074 435.348 525.152 435.693 524 435.693H523.05Z" fill="#232323"/>
<path d="M506.168 412.715L507.896 410.987H517.139V416.688L515.411 418.416H506.168V412.715Z" fill="#232323"/>
<path d="M496.888 412.715L498.615 410.987H507.859V416.688L506.131 418.416H496.888V412.715Z" fill="#232323"/>
<path d="M487.607 412.715L489.335 410.987H498.578V416.688L496.851 418.416H487.607V412.715Z" fill="#232323"/>
<path d="M478.327 412.715L480.055 410.987H489.298V416.688L487.57 418.416H478.327V412.715Z" fill="#232323"/>
<path d="M447.284 431.72H450.48C453.648 431.72 456.24 431.259 458.255 430.338C460.271 429.416 461.855 428.178 463.006 426.623C464.158 425.126 464.965 423.341 465.425 421.267C465.886 419.252 466.116 417.121 466.116 414.875C466.116 413.205 466.03 411.477 465.857 409.692C465.684 407.849 465.454 406.092 465.166 404.422L463.352 394.66L469.399 393.451L470.522 400.016C470.868 402.032 471.127 403.932 471.3 405.718C471.53 407.503 471.703 409.26 471.818 410.987H480.025V416.689L478.297 418.417H471.731C471.501 421.238 470.954 423.888 470.09 426.364C469.284 428.898 468.046 431.115 466.376 433.016C464.763 434.916 462.632 436.414 459.983 437.508C457.391 438.602 454.224 439.149 450.48 439.149H447.284V431.72Z" fill="#232323"/>
<path d="M419.216 354.49H425.608V418.416H419.216V354.49Z" fill="#232323"/>
<path d="M387.809 412.715L389.536 410.987H392.042C394.806 410.987 396.793 410.353 398.002 409.086C399.269 407.819 399.903 405.804 399.903 403.039V354.49H406.295V403.039C406.295 408.338 405.143 412.225 402.84 414.701C400.594 417.178 396.994 418.416 392.042 418.416H387.809V412.715Z" fill="#232323"/>
<path d="M378.528 412.715L380.256 410.987H389.499V416.688L387.772 418.416H378.528V412.715Z" fill="#232323"/>
<path d="M369.248 412.715L370.976 410.987H380.219V416.688L378.491 418.416H369.248V412.715Z" fill="#232323"/>
<path d="M359.968 412.715L361.695 410.987H370.939V416.688L369.211 418.416H359.968V412.715Z" fill="#232323"/>
<path d="M306.824 431.72H310.02C313.188 431.72 315.78 431.259 317.795 430.338C319.811 429.416 321.395 428.178 322.546 426.623C323.698 425.126 324.505 423.341 324.965 421.267C325.426 419.252 325.656 417.121 325.656 414.875C325.656 413.205 325.57 411.477 325.397 409.692C325.224 407.849 324.994 406.092 324.706 404.422L322.892 394.66L328.939 393.451L329.976 399.671L345.18 397.079V389.995H351.227V404.94C351.227 407.129 351.831 408.684 353.041 409.605C354.25 410.527 356.122 410.987 358.656 410.987H361.679V416.689L359.952 418.417H359.779C357.13 418.417 354.884 418.186 353.041 417.725C351.198 417.207 349.672 416.43 348.462 415.393C347.311 414.299 346.475 412.888 345.957 411.16C345.439 409.432 345.18 407.359 345.18 404.94V404.249L331.012 406.668C331.127 408.108 331.214 409.519 331.271 410.901C331.387 412.283 331.444 413.665 331.444 415.047C331.444 418.215 331.099 421.238 330.408 424.118C329.717 427.055 328.536 429.618 326.866 431.806C325.253 434.052 323.065 435.838 320.3 437.162C317.594 438.487 314.167 439.149 310.02 439.149H306.824V431.72ZM347.685 435.694C346.533 435.694 345.612 435.348 344.92 434.657C344.229 434.024 343.884 432.958 343.884 431.461C343.884 429.963 344.229 428.869 344.92 428.178C345.612 427.545 346.533 427.228 347.685 427.228H348.635C349.787 427.228 350.708 427.545 351.399 428.178C352.091 428.869 352.436 429.963 352.436 431.461C352.436 432.958 352.091 434.024 351.399 434.657C350.708 435.348 349.787 435.694 348.635 435.694H347.685Z" fill="#232323"/>
<path d="M279.836 413.406C278.512 415.191 276.957 416.487 275.171 417.293C273.444 418.042 271.226 418.416 268.52 418.416V412.715L270.247 410.987C271.341 410.987 272.263 410.843 273.012 410.555C273.818 410.267 274.509 409.835 275.085 409.259C275.718 408.626 276.265 407.819 276.726 406.84C277.245 405.804 277.763 404.594 278.281 403.212L280.7 396.82C282.025 393.364 283.781 390.715 285.97 388.872C288.158 386.972 291.066 386.021 294.695 386.021C298.956 386.021 302.239 387.951 304.543 391.809C306.904 395.668 308.084 401.024 308.084 407.877V411.937L302.988 419.453L279.836 413.406ZM283.292 406.581L302.037 411.592V407.877C302.037 403.385 301.289 399.872 299.791 397.338C298.352 394.746 296.307 393.451 293.658 393.451C291.469 393.451 289.771 394.113 288.561 395.437C287.409 396.762 286.43 398.432 285.624 400.448L283.292 406.581Z" fill="#232323"/>
<path d="M259.239 412.715L260.967 410.987H270.21V416.688L268.483 418.416H259.239V412.715Z" fill="#232323"/>
<path d="M249.959 412.715L251.687 410.987H260.93V416.688L259.202 418.416H249.959V412.715Z" fill="#232323"/>
<path d="M240.684 412.715L242.411 410.987H251.655V416.688L249.927 418.416H240.684V412.715Z" fill="#232323"/>
<path d="M183.398 412.715L185.126 410.987H188.063C190.597 410.987 192.93 410.901 195.061 410.728C197.249 410.555 199.466 410.238 201.712 409.778C203.958 409.259 206.32 408.539 208.796 407.618C211.33 406.696 214.181 405.487 217.348 403.99L225.296 400.189V399.843L212.511 396.992L194.629 392.587V400.016H188.582V393.364C188.582 390.945 189.244 389.131 190.568 387.922C191.951 386.655 193.678 386.021 195.752 386.021C196.385 386.021 197.134 386.108 197.998 386.281C198.919 386.396 200.33 386.684 202.231 387.144L223.309 392.587C226.476 393.393 229.125 393.969 231.256 394.314C233.387 394.602 235.23 394.746 236.785 394.746H238.167V402.176H231.602V403.212C231.602 406.092 232.235 408.107 233.502 409.259C234.769 410.411 236.727 410.987 239.377 410.987H242.4V416.688L240.672 418.416C238.138 418.416 235.979 418.186 234.193 417.725C232.408 417.264 230.94 416.516 229.788 415.479C228.694 414.385 227.858 413.003 227.283 411.332C226.764 409.662 226.476 407.618 226.419 405.199L219.681 409.259C216.11 411.39 212.942 413.089 210.178 414.356C207.414 415.565 204.822 416.487 202.403 417.12C199.985 417.696 197.623 418.071 195.32 418.243C193.074 418.359 190.655 418.416 188.063 418.416H183.398V412.715ZM210.956 435.693C209.804 435.693 208.882 435.348 208.191 434.657C207.5 434.023 207.155 432.958 207.155 431.46C207.155 429.963 207.5 428.869 208.191 428.178C208.882 427.544 209.804 427.228 210.956 427.228H211.906C213.058 427.228 213.979 427.544 214.67 428.178C215.361 428.869 215.707 429.963 215.707 431.46C215.707 432.958 215.361 434.023 214.67 434.657C213.979 435.348 213.058 435.693 211.906 435.693H210.956Z" fill="#232323"/>
<path d="M174.118 412.715L175.846 410.987H185.089V416.688L183.361 418.416H174.118V412.715Z" fill="#232323"/>
<path d="M164.843 412.715L166.57 410.987H175.814V416.688L174.086 418.416H164.843V412.715Z" fill="#232323"/>
<path d="M138.099 412.715L139.826 410.987H142.85C147.745 410.987 150.193 408.54 150.193 403.644V389.995H156.24V403.644C156.24 408.54 158.687 410.987 163.583 410.987H166.606V416.689L164.878 418.417C156.931 418.417 152.266 415.595 150.884 409.951H150.452C149.818 413.118 148.58 415.335 146.737 416.602C144.894 417.812 142.015 418.417 138.099 418.417V412.715ZM158.313 435.694C157.161 435.694 156.24 435.348 155.549 434.657C154.858 434.024 154.512 432.958 154.512 431.461C154.512 429.963 154.858 428.869 155.549 428.178C156.24 427.545 157.161 427.228 158.313 427.228H159.263C160.415 427.228 161.336 427.545 162.028 428.178C162.719 428.869 163.064 429.963 163.064 431.461C163.064 432.958 162.719 434.024 162.028 434.657C161.336 435.348 160.415 435.694 159.263 435.694H158.313ZM147.169 435.694C146.017 435.694 145.096 435.348 144.405 434.657C143.714 434.024 143.368 432.958 143.368 431.461C143.368 429.963 143.714 428.869 144.405 428.178C145.096 427.545 146.017 427.228 147.169 427.228H148.119C149.271 427.228 150.193 427.545 150.884 428.178C151.575 428.869 151.92 429.963 151.92 431.461C151.92 432.958 151.575 434.024 150.884 434.657C150.193 435.348 149.271 435.694 148.119 435.694H147.169Z" fill="#232323"/>
<path d="M128.818 412.715L130.546 410.987H139.789V416.688L138.062 418.416H128.818V412.715Z" fill="#232323"/>
<path d="M119.538 412.715L121.266 410.987H130.509V416.688L128.781 418.416H119.538V412.715Z" fill="#232323"/>
<path d="M110.258 412.715L111.986 410.987H121.229V416.688L119.501 418.416H110.258V412.715Z" fill="#232323"/>
<path d="M101.882 412.715L103.61 410.987H112.853V416.688L111.125 418.416H101.882V412.715Z" fill="#232323"/>
<path d="M101.838 418.416C99.0735 418.416 96.7123 418.186 94.7542 417.725C92.8537 417.264 91.2987 416.516 90.0893 415.479C88.9375 414.385 88.1024 412.974 87.5841 411.246C87.0658 409.518 86.8066 407.416 86.8066 404.94V354.49H93.1992V404.94C93.1992 407.128 93.8039 408.683 95.0133 409.605C96.2227 410.526 98.0944 410.987 100.628 410.987H103.652V416.688L101.924 418.416H101.838Z" fill="#232323"/>
<path d="M43.969 419.453C37.922 419.453 32.8252 419.136 28.6787 418.503C24.5897 417.869 21.2783 416.862 18.7443 415.479C16.2103 414.097 14.3674 412.283 13.2156 410.037C12.1213 407.733 11.5742 404.94 11.5742 401.658C11.5742 399.354 11.8622 396.993 12.4381 394.574C13.0716 392.155 14.0218 389.477 15.2888 386.54L20.6448 388.181C18.2835 393.077 17.1029 397.281 17.1029 400.794C17.1029 404.307 18.7731 406.898 22.1133 408.569C25.4536 410.181 30.7231 410.987 37.922 410.987H50.016C54.105 410.987 57.474 410.872 60.1232 410.642C62.7724 410.411 64.8745 410.008 66.4294 409.432C67.9844 408.856 69.0498 408.079 69.6257 407.1C70.2592 406.063 70.5759 404.768 70.5759 403.213C70.5759 402.234 70.5183 401.024 70.4032 399.584C70.288 398.087 70 396.129 69.5393 393.71L68.2435 386.54L74.2905 385.59L75.4136 392.76C75.8167 395.351 76.0759 397.482 76.191 399.152C76.3638 400.765 76.4502 402.118 76.4502 403.213C76.4502 406.207 75.8743 408.741 74.7225 410.815C73.6282 412.888 71.7853 414.558 69.1938 415.825C66.6598 417.092 63.3195 418.013 59.173 418.589C55.084 419.165 50.016 419.453 43.969 419.453ZM48.8066 386.54C47.6548 386.54 46.7334 386.223 46.0423 385.59C45.3512 384.899 45.0056 383.804 45.0056 382.307C45.0056 380.81 45.3512 379.744 46.0423 379.111C46.7334 378.42 47.6548 378.074 48.8066 378.074H49.7569C50.9087 378.074 51.8301 378.42 52.5212 379.111C53.2123 379.744 53.5579 380.81 53.5579 382.307C53.5579 383.804 53.2123 384.899 52.5212 385.59C51.8301 386.223 50.9087 386.54 49.7569 386.54H48.8066ZM37.6628 386.54C36.511 386.54 35.5896 386.223 34.8985 385.59C34.2074 384.899 33.8618 383.804 33.8618 382.307C33.8618 380.81 34.2074 379.744 34.8985 379.111C35.5896 378.42 36.511 378.074 37.6628 378.074H38.6131C39.7649 378.074 40.6863 378.42 41.3774 379.111C42.0685 379.744 42.4141 380.81 42.4141 382.307C42.4141 383.804 42.0685 384.899 41.3774 385.59C40.6863 386.223 39.7649 386.54 38.6131 386.54H37.6628Z" fill="#232323"/>
<path d="M1076.8 346.607C1074.63 345.35 1072.9 343.617 1071.67 341.616C1070.47 340.099 1069.56 338.318 1069.03 336.331L1023.99 167.796C1023.81 167.154 1022.95 167.04 1022.62 167.616L900.701 379.336L926.556 424.232C931.871 433.463 941.694 439.149 952.325 439.149H1151.61C1162.24 439.149 1172.07 433.463 1177.38 424.232L1277.03 251.198C1282.34 241.967 1282.34 230.595 1277.03 221.364L1221.41 124.774L1096.75 341.248C1092.71 348.251 1083.78 350.65 1076.8 346.607Z" fill="url(#paint0_linear_1058_41)"/>
<path d="M1204.54 95.4925L1089.57 295.144C1089.24 295.72 1088.38 295.606 1088.21 294.964L1043.57 127.938C1043.46 127.523 1043.33 127.117 1043.19 126.72C1043.16 126.658 1043.15 126.594 1043.14 126.528C1042.7 121.986 1040.15 117.717 1035.91 115.261C1028.92 111.218 1019.99 113.618 1015.96 120.62L883.839 350.054L826.911 251.198C821.596 241.967 821.596 230.595 826.911 221.364L926.556 48.3296C931.871 39.0991 941.695 33.4128 952.326 33.4128L1151.61 33.4129C1162.24 33.4129 1172.07 39.0991 1177.38 48.3296L1204.54 95.4925Z" fill="url(#paint1_linear_1058_41)"/>
<defs>
<linearGradient id="paint0_linear_1058_41" x1="892.864" y1="382.686" x2="1200.83" y2="91.0106" gradientUnits="userSpaceOnUse">
<stop stop-color="#009F6F"/>
<stop offset="0.5" stop-color="#38C684"/>
<stop offset="1" stop-color="#11B14E"/>
</linearGradient>
<linearGradient id="paint1_linear_1058_41" x1="892.864" y1="382.686" x2="1200.83" y2="91.0106" gradientUnits="userSpaceOnUse">
<stop stop-color="#009F6F"/>
<stop offset="0.5" stop-color="#38C684"/>
<stop offset="1" stop-color="#11B14E"/>
</linearGradient>
</defs>
</svg>
