<svg xmlns="http://www.w3.org/2000/svg" version="1.1" xmlns:xlink="http://www.w3.org/1999/xlink" width="512" height="512" x="0" y="0" viewBox="0 0 100 100" style="enable-background:new 0 0 512 512" xml:space="preserve" class=""><g><path d="M87.097 66.785c-2.337 0-4.394.918-6.126 2.208l-11.298-9.02c1.674-2.801 2.697-6.021 2.697-9.508 0-3.813-1.163-7.346-3.115-10.31l8.775-7.742c1.942 1.407 4.185 2.407 6.754 2.407 6.509 0 11.774-5.29 11.774-11.787s-5.265-11.775-11.774-11.775c-6.486 0-11.775 5.29-11.775 11.775 0 2.046.674 3.882 1.592 5.568l-8.81 7.753c-3.267-2.825-7.463-4.58-12.124-4.58-1.755 0-3.44.326-5.068.79l-5.928-13.436c1.395-1.349 2.267-3.209 2.267-5.3 0-4.08-3.313-7.405-7.404-7.405s-7.381 3.324-7.381 7.404a7.401 7.401 0 0 0 7.404 7.404c.151 0 .267-.07.418-.08l5.928 13.46c-5.323 3.289-8.927 9.135-8.927 15.854 0 .046.012.105.012.151l-6.149.907c-1.86-5.3-6.788-9.16-12.716-9.16-7.509 0-13.623 6.114-13.623 13.635 0 7.509 6.102 13.623 13.623 13.623 7.3 0 13.17-5.812 13.495-13.019l6.195-.918c1.72 5.893 6.254 10.531 12.066 12.449l-1.976 10.903c-3.418.65-6.068 3.522-6.068 7.137 0 4.091 3.301 7.404 7.393 7.404s7.404-3.313 7.404-7.404c0-2.685-1.511-4.952-3.661-6.242l1.964-10.868c.244.011.488.081.744.081 4.975 0 9.462-1.976 12.82-5.138l11.16 8.927c-.605 1.302-.965 2.732-.965 4.255 0 5.742 4.65 10.403 10.414 10.403 5.72 0 10.392-4.65 10.392-10.403-.012-5.73-4.673-10.403-10.403-10.403z" fill="#009F6F" opacity="1" data-original="#000000" class=""></path></g></svg>